# xmcd
#
# Track frame offsets: 
#        182
#        11740
#        23442
#        34352
#        46215
#        60015
#        74170
#        87070
#        96760
#        109307
#        119290
#        131552
#        144165
#        157957
#        172902
#        183730
#        197020
#        208102
#
# Disc length: 2939 seconds
#
# Revision: 1
# Processed by: cddbd v1.5.2PL0 Copyright (c) Steve Scherf et al.
# Submitted via: ExactAudioCopy v1.3
#
DISCID=f00b7912
DTITLE=Howlin' Wolf - Who Will Be Next?
DYEAR=1992
DGENRE=Blues
TTITLE0=Who Will Be Next?
TTITLE1=I Have A Little Girl
TTITLE2=Come To Me Baby
TTITLE3=Don't Mess With Me Baby
TTITLE4=Smokestack Lightnin'
TTITLE5=You Can't Be Beat
TTITLE6=I Asked For Water (She Gave Me Gasoline)
TTITLE7=So Glad
TTITLE8=Break Of Day
TTITLE9=The Natchez Burnin'
TTITLE10=Goin' Back Home
TTITLE11=Bluebird
TTITLE12=My Life
TTITLE13=You Ought To Know
TTITLE14=Who's Been Talking
TTITLE15=Tell Me
TTITLE16=Somebody In My Home
TTITLE17=Nature
EXTD=sbmitted by william hale
EXTT0=
EXTT1=
EXTT2=
EXTT3=
EXTT4=
EXTT5=
EXTT6=
EXTT7=
EXTT8=
EXTT9=
EXTT10=
EXTT11=
EXTT12=
EXTT13=
EXTT14=
EXTT15=
EXTT16=
EXTT17=
PLAYORDER=
